PathFileType	4	(X/Y/Z)	OpenSim_Sub04_EMGBaseline_Magnet.trc
DataRate	CameraRate	NumFrames	NumMarkers	Units	OrigDataRate	OrigDataStartFrame	OrigNumFrames
100	100	37	8	m	100	2978	7941
Frame#	Time	torso_imu_offset_imu	pelvis_imu_offset_imu	tibia_r_imu_offset_imu	femur_r_imu_offset_imu	tibia_l_imu_offset_imu	femur_l_imu_offset_imu	toes_r_imu_offset_imu	toes_l_imu_offset_imu
				X1	Y1	Z1	X2	Y2	Z2	X3	Y3	Z3	X4	Y4	Z4	X5	Y5	Z5	X6	Y6	Z6	X7	Y7	Z7	X8		Y8	Z8	

2978	29.77000000	0.91940672	0.20641780	-0.17578119	-0.63193045	0.18693562	-0.64968788	-0.53470868	-0.59829267	-0.13348967	-0.82911917	-0.14052668	0.10570998	-0.33187838	0.71285252	0.27603650	-0.62614999	0.34489014	0.42523594	-0.71296837	-0.14919089	-0.32766271	-0.80686162	-0.29468001	0.01323526
2979	29.78000000	0.91893505	0.20639182	-0.18120057	-0.63088399	0.17721260	-0.65074685	-0.52867586	-0.60621946	-0.13045997	-0.83188626	-0.15167283	0.10330189	-0.32039280	0.72433162	0.27893725	-0.63678921	0.33848300	0.42129274	-0.71023286	-0.15048745	-0.32283490	-0.80162220	-0.28282013	0.05186322
2980	29.79000000	0.91774685	0.20535991	-0.17924346	-0.63466120	0.17284279	-0.64892092	-0.52504505	-0.60528409	-0.12892377	-0.83206598	-0.15514183	0.10302220	-0.30149517	0.72993609	0.27051766	-0.64535868	0.32583153	0.41377542	-0.71140116	-0.14834145	-0.32392553	-0.79809169	-0.27544814	0.09503616
2981	29.80000000	0.92210800	0.20155015	-0.18375204	-0.63857583	0.17172713	-0.65063544	-0.52235902	-0.60885250	-0.12838485	-0.82564559	-0.17210812	0.09904975	-0.27815916	0.73409544	0.27123243	-0.65576469	0.31944191	0.40227550	-0.71203075	-0.14927190	-0.31832116	-0.79628069	-0.26715288	0.13740066
2982	29.81000000	0.92133934	0.20198881	-0.18221842	-0.63301219	0.16656129	-0.64856410	-0.51589646	-0.61701607	-0.12643273	-0.82301251	-0.17872151	0.10088972	-0.25864055	0.73937980	0.26604948	-0.66506486	0.30723593	0.39510671	-0.70925819	-0.15376777	-0.32086647	-0.79082777	-0.25346576	0.18017507
2983	29.82000000	0.91854373	0.20191861	-0.17851692	-0.63709205	0.16797918	-0.65496137	-0.51475890	-0.62024271	-0.13210747	-0.81656765	-0.18564543	0.10467565	-0.24563673	0.74792231	0.27747522	-0.67728766	0.29843799	0.38869553	-0.71494457	-0.15761145	-0.32055305	-0.77996985	-0.24503943	0.21913742
2984	29.83000000	0.91515888	0.20174318	-0.17821207	-0.63550071	0.15838986	-0.66306205	-0.51361671	-0.61909310	-0.13401594	-0.81558327	-0.19657015	0.09921931	-0.21896919	0.75522803	0.28009503	-0.68328271	0.29384802	0.37384325	-0.70927264	-0.15888326	-0.31983021	-0.77109945	-0.22329119	0.25318928
2985	29.84000000	0.91842292	0.19875578	-0.17720789	-0.64113282	0.15051760	-0.66034712	-0.50687288	-0.61558450	-0.12885472	-0.81634205	-0.20625422	0.09705539	-0.20614628	0.76219153	0.28419109	-0.69565296	0.27750654	0.37080094	-0.70963002	-0.15950427	-0.31881124	-0.75839573	-0.21019414	0.29110564
2986	29.85000000	0.92241122	0.19552895	-0.18399810	-0.63831357	0.14798881	-0.65481963	-0.50098597	-0.62218728	-0.13283943	-0.81205251	-0.21491424	0.10162083	-0.19306902	0.75713389	0.28598198	-0.70926894	0.27277250	0.36567133	-0.71455122	-0.16380289	-0.31935589	-0.75113735	-0.18667726	0.32036716
2987	29.86000000	0.92469323	0.19454443	-0.18442432	-0.63876781	0.14917667	-0.65684900	-0.50000952	-0.63065256	-0.13037531	-0.81226480	-0.22132792	0.10232259	-0.17337384	0.75841276	0.28554697	-0.71268681	0.25917687	0.35533809	-0.70954898	-0.16500328	-0.31383956	-0.74201465	-0.16666610	0.34613045
2988	29.87000000	0.92585082	0.18881832	-0.17961080	-0.63821581	0.14518099	-0.65537575	-0.50100626	-0.62875880	-0.12908042	-0.80875279	-0.22276815	0.10622510	-0.16410014	0.75983248	0.28540564	-0.71885024	0.24769062	0.34350503	-0.70832848	-0.16545127	-0.31605165	-0.73335989	-0.14577700	0.37257320
2989	29.88000000	0.92468790	0.18865326	-0.17829959	-0.63571445	0.14525656	-0.66233355	-0.49762309	-0.63290739	-0.12391562	-0.80296817	-0.23559699	0.10430140	-0.15349765	0.76126224	0.28493428	-0.72308040	0.23369282	0.34251169	-0.70775637	-0.17054413	-0.31407293	-0.73533727	-0.11942498	0.37470838
2990	29.89000000	0.92841083	0.18475105	-0.18099920	-0.63463275	0.14351286	-0.66139110	-0.49829310	-0.63630674	-0.12739957	-0.80312023	-0.23979890	0.10767128	-0.13923620	0.77019016	0.28466887	-0.73205849	0.22616884	0.33611320	-0.70642997	-0.17536881	-0.31588380	-0.73871223	-0.12400976	0.36454244
2991	29.90000000	0.92312966	0.18480375	-0.18146823	-0.63487818	0.14298873	-0.66184563	-0.48638045	-0.64588201	-0.11973394	-0.80066833	-0.24048205	0.11321963	-0.13280755	0.77377613	0.28282097	-0.73743042	0.21128933	0.32926322	-0.70725575	-0.17572135	-0.31357009	-0.74698932	-0.11708102	0.35367539
2992	29.91000000	0.92340088	0.18262695	-0.17878880	-0.62758388	0.13877133	-0.66473123	-0.48257655	-0.64492731	-0.11862469	-0.79907903	-0.24720089	0.12233679	-0.12505826	0.77535899	0.27382113	-0.74121585	0.20213919	0.33153418	-0.70076053	-0.18006593	-0.31422758	-0.74707523	-0.11358186	0.34813964
2993	29.92000000	0.92830719	0.17958357	-0.18091347	-0.63233085	0.13671596	-0.66850167	-0.48428043	-0.64832128	-0.11457295	-0.79812201	-0.25355325	0.12190913	-0.12586897	0.77604563	0.26942048	-0.74526880	0.18725343	0.32656732	-0.69915105	-0.18389808	-0.31571226	-0.75496803	-0.11843873	0.33477653
2994	29.93000000	0.92565622	0.17089283	-0.17380594	-0.62818946	0.13541940	-0.66830938	-0.48180615	-0.65439744	-0.10618753	-0.79402091	-0.25895284	0.12158019	-0.12969310	0.78070766	0.25843946	-0.74910434	0.17836019	0.32504327	-0.69677687	-0.18807641	-0.31695715	-0.76324320	-0.11253830	0.30637651
2995	29.94000000	0.93066233	0.16832655	-0.18171411	-0.62306882	0.13744264	-0.67173540	-0.48228768	-0.65799268	-0.10417154	-0.79083434	-0.26446976	0.13618183	-0.14101948	0.77886840	0.25164896	-0.75032679	0.16565384	0.32219190	-0.69469937	-0.19188035	-0.32477296	-0.77190716	-0.11998676	0.28694380
2996	29.95000000	0.92457665	0.16715299	-0.17733513	-0.62587499	0.13365581	-0.67532418	-0.48408044	-0.66388631	-0.09883478	-0.78260485	-0.27322212	0.13369534	-0.15054067	0.77232662	0.25927697	-0.75356985	0.15312114	0.31917321	-0.69218213	-0.19311605	-0.32355090	-0.78475628	-0.12129466	0.25235430
2997	29.96000000	0.93063326	0.16154007	-0.17793116	-0.62722126	0.12588175	-0.67555626	-0.47946942	-0.66949647	-0.09175073	-0.78152165	-0.27368810	0.14194611	-0.16676187	0.77072189	0.25434604	-0.76132063	0.13458140	0.32057731	-0.68781816	-0.19431764	-0.32492227	-0.78637616	-0.12745029	0.22766461
2998	29.97000000	0.93330609	0.16487060	-0.17060876	-0.62700628	0.12408511	-0.67941425	-0.47048740	-0.66412310	-0.08598202	-0.78096405	-0.28243357	0.14550190	-0.18264102	0.76810783	0.26285429	-0.76187434	0.13054480	0.31754953	-0.68390514	-0.19879633	-0.33104274	-0.79681050	-0.14077726	0.19999789
2999	29.98000000	0.93174788	0.16214069	-0.17540043	-0.62657899	0.12022286	-0.67692819	-0.47052609	-0.67436501	-0.08353728	-0.77848579	-0.28546832	0.14513217	-0.20419501	0.76322383	0.25481241	-0.76347289	0.12645533	0.32026136	-0.68236289	-0.19567888	-0.33535654	-0.79047708	-0.14785428	0.15929172
3000	29.99000000	0.93712425	0.15305004	-0.17120360	-0.62465013	0.11696867	-0.67989410	-0.46569655	-0.67766455	-0.08234906	-0.77678635	-0.29167727	0.14599070	-0.23118316	0.75636801	0.25298197	-0.76784020	0.11273285	0.31191481	-0.68197099	-0.20521324	-0.33781624	-0.80013224	-0.15282433	0.12637647
3001	30	0.93688660	0.15234976	-0.16404900	-0.62404800	0.10931285	-0.68089246	-0.46156081	-0.67553931	-0.08272584	-0.77575943	-0.30275580	0.14840335	-0.25418718	0.74648688	0.24863516	-0.76403735	0.10617165	0.31194046	-0.67645298	-0.20941748	-0.33407185	-0.80078797	-0.16142972	0.08933270
3002	30.01000000	0.93568750	0.14436031	-0.15855476	-0.62262503	0.10687952	-0.68250281	-0.45803343	-0.68610374	-0.07751514	-0.77153862	-0.30150583	0.14818113	-0.27496481	0.73760228	0.23516019	-0.76788346	0.09948111	0.30499824	-0.67154140	-0.20950613	-0.33915712	-0.79996272	-0.17121793	0.05211158
3003	30.02000000	0.94511080	0.14128797	-0.16126198	-0.62375572	0.10135443	-0.68761975	-0.45664414	-0.68690196	-0.08346017	-0.76974968	-0.30895570	0.14845150	-0.30613429	0.73684341	0.23289173	-0.76605259	0.08613019	0.30366913	-0.67416127	-0.21125990	-0.34308917	-0.79771537	-0.18212921	0.02137199
3004	30.03000000	0.93687874	0.13159746	-0.16353762	-0.61948619	0.10163434	-0.68357815	-0.44549667	-0.68967288	-0.07875574	-0.76651317	-0.32050579	0.14936454	-0.33820064	0.72020657	0.21966154	-0.77281528	0.08664352	0.30131148	-0.67363908	-0.21157953	-0.34717789	-0.79622423	-0.18546715	-0.00996973
3005	30.04000000	0.93538669	0.13552541	-0.16337211	-0.62314889	0.09539471	-0.68802771	-0.44057137	-0.69417646	-0.07790642	-0.76385997	-0.31651311	0.15114211	-0.36772512	0.70311012	0.21483008	-0.77449270	0.07895821	0.30281248	-0.67047157	-0.21663245	-0.35181039	-0.78298801	-0.20096183	-0.03856239
3006	30.05000000	0.94056647	0.13558086	-0.15323606	-0.62487925	0.08939738	-0.68814660	-0.44110096	-0.69725977	-0.07123746	-0.76398171	-0.32674987	0.15213498	-0.40240495	0.69505562	0.21366215	-0.77506076	0.07302851	0.30965271	-0.66792962	-0.22175920	-0.35738884	-0.77738085	-0.20848289	-0.07264956
3007	30.06000000	0.93650301	0.12916807	-0.15317361	-0.61650816	0.09295637	-0.69241567	-0.44049764	-0.69830593	-0.07280492	-0.75317728	-0.33317582	0.15671763	-0.43229858	0.66809593	0.20553048	-0.77166861	0.06862811	0.31036675	-0.67049677	-0.22427115	-0.35942014	-0.77884934	-0.21797996	-0.11066819
3008	30.07000000	0.93980627	0.12843113	-0.14917873	-0.61763939	0.08578942	-0.69268471	-0.43486102	-0.70392781	-0.07717551	-0.75291330	-0.33629263	0.15641214	-0.47129492	0.64389949	0.20964050	-0.77553192	0.06468628	0.30881242	-0.66509606	-0.23079753	-0.36383187	-0.76215361	-0.22839005	-0.13188243
3009	30.08000000	0.94402820	0.12710057	-0.15500964	-0.61613449	0.08288760	-0.69718445	-0.42728379	-0.70446001	-0.07846296	-0.75425098	-0.34689313	0.15691016	-0.50160542	0.62827676	0.20247718	-0.76984102	0.06264530	0.31881081	-0.67166360	-0.23343733	-0.37047837	-0.75655365	-0.23697858	-0.16001979
3010	30.09000000	0.94477216	0.12139360	-0.15314112	-0.60970030	0.08281541	-0.69928901	-0.42539706	-0.71031137	-0.07534680	-0.75125602	-0.35249820	0.16086433	-0.53076448	0.59812032	0.19963266	-0.76974859	0.06141645	0.32401571	-0.67049521	-0.23485040	-0.37913103	-0.74852621	-0.24835460	-0.18970346
3011	30.10000000	0.94152095	0.12151363	-0.14210307	-0.60827002	0.08012187	-0.70107389	-0.41992625	-0.70948882	-0.07430563	-0.74615509	-0.35833176	0.16263412	-0.55516820	0.56319287	0.20007561	-0.77295319	0.06654802	0.30864195	-0.66798228	-0.24519616	-0.38704641	-0.74003177	-0.25754018	-0.22027186
3012	30.11000000	0.94583777	0.11978176	-0.14663715	-0.60874864	0.07558148	-0.70181652	-0.41264234	-0.71386105	-0.07856568	-0.74090841	-0.36271953	0.15569432	-0.58506690	0.54068154	0.19363250	-0.76922192	0.07024184	0.32136619	-0.66720971	-0.25149259	-0.39194735	-0.73158509	-0.26269430	-0.24819622
3013	30.12000000	0.94244112	0.12198430	-0.13820415	-0.61043545	0.07258349	-0.70482276	-0.40909285	-0.72288330	-0.08131400	-0.74025893	-0.37232424	0.16655973	-0.60989791	0.50684621	0.19552113	-0.77077607	0.07634010	0.31908557	-0.67332907	-0.25797361	-0.39166656	-0.71584908	-0.27232982	-0.28477675
3014	30.13000000	0.93858990	0.11831770	-0.13732261	-0.60682495	0.07503061	-0.70490721	-0.40208802	-0.71901821	-0.08727736	-0.73270119	-0.38042858	0.16553922	-0.64169451	0.47913430	0.18972741	-0.76451273	0.08480743	0.32087444	-0.67439367	-0.25987545	-0.39435951	-0.70733882	-0.27478848	-0.30989671
